Coordinates
version=1
nRows=9
nColumns=24
inDegrees=yes

Units are S.I. units (second, meters, Newtons, ...)
Angles are in degrees.

endheader
time	pelvis_tilt	pelvis_list	pelvis_rotation	pelvis_tx	pelvis_ty	pelvis_tz	hip_flexion_r	hip_adduction_r	hip_rotation_r	knee_angle_r	ankle_angle_r	subtalar_angle_r	mtp_angle_r	hip_flexion_l	hip_adduction_l	hip_rotation_l	knee_angle_l	ankle_angle_l	subtalar_angle_l	mtp_angle_l	lumbar_extension	lumbar_bending	lumbar_rotation
      0.70016667	      3.10957862	      3.59551568	     -1.19087965	     -0.48508372	      1.02444408	      0.29639052	      8.15927183	     -1.36890624	     -1.97501609	    -18.13405668	      7.89949501	     -5.48271730	      9.06296516	     14.04879130	      2.21426559	     -7.16428797	    -64.39159605	      0.59962002	    -18.22294750	      1.09310573	    -11.00410938	     -3.42759358	      4.42634057
      0.70433333	      3.11765383	      3.69959170	     -1.36513266	     -0.47995375	      1.02516713	      0.29674702	      7.72371153	     -1.47554496	     -1.92091891	    -17.88270961	      8.04346298	     -5.32120380	      9.07572343	     14.47202903	      2.34205109	     -7.30941718	    -63.79166487	      0.81951488	    -17.98865439	      1.07486875	    -11.01803249	     -3.53187076	      4.66968079
      0.70850000	      3.10815437	      3.80380796	     -1.54371461	     -0.47483783	      1.02582463	      0.29711404	      7.30738019	     -1.58320565	     -1.86645536	    -17.62342342	      8.18176693	     -5.14418570	      9.09472842	     14.90308452	      2.46364218	     -7.45673858	    -63.13743649	      1.03600990	    -17.73430345	      1.05909611	    -11.03253430	     -3.66700317	      4.92261585
      0.71266667	      3.08138461	      3.90977716	     -1.73388086	     -0.46971590	      1.02640772	      0.29747256	      6.91776466	     -1.69700371	     -1.81388380	    -17.37581767	      8.30834499	     -4.96915061	      9.11618395	     15.33539798	      2.58206683	     -7.61214179	    -62.42057837	      1.24489256	    -17.44319654	      1.05433909	    -11.01399814	     -3.79731028	      5.13667374
      0.71683333	      3.05597887	      4.00272732	     -1.92534114	     -0.46458223	      1.02694418	      0.29781195	      6.52390402	     -1.80044500	     -1.76511247	    -17.12325252	      8.43332375	     -4.78870329	      9.13950803	     15.75041305	      2.68144564	     -7.76616356	    -61.65296999	      1.45629077	    -17.11769930	      1.05916579	    -10.99635554	     -3.91044033	      5.35247092
      0.72100000	      3.03600300	      4.09978269	     -2.12483679	     -0.45944437	      1.02746633	      0.29814346	      6.12531276	     -1.91187605	     -1.71377274	    -16.86723156	      8.51499529	     -4.62406526	      9.15628648	     16.13815515	      2.78379796	     -7.92131207	    -60.81507877	      1.63300011	    -16.79178980	      1.06923799	    -10.98153813	     -4.02518711	      5.51177878
      0.72516667	      3.03506778	      4.17464583	     -2.31999512	     -0.45430756	      1.02794532	      0.29846250	      5.70306447	     -2.00501434	     -1.68374344	    -16.61017810	      8.68806922	     -4.38939010	      9.19121301	     16.49328179	      2.85552738	     -8.07018973	    -59.94407635	      1.86194701	    -16.40420456	      1.09425166	    -10.99750151	     -4.11610185	      5.81609273
      0.72933333	      3.00987869	      4.24341834	     -2.52168426	     -0.44916899	      1.02833738	      0.29878441	      5.31280651	     -2.09144823	     -1.64538683	    -16.36041541	      8.82079978	     -4.19333561	      9.22700157	     16.85842517	      2.91265266	     -8.22602001	    -59.02223130	      2.05880437	    -16.01773986	      1.12692662	    -10.97527936	     -4.20431964	      6.05426790
      0.73350000	      3.02210587	      4.31097884	     -2.72564764	     -0.44401721	      1.02875168	      0.29908926	      4.87553917	     -2.18365548	     -1.61839967	    -16.09913531	      8.96043692	     -3.99218019	      9.26062399	     17.16099391	      2.96787622	     -8.38131423	    -58.04138197	      2.24273082	    -15.62952196	      1.16263023	    -10.99784817	     -4.29361705	      6.27003707
